<?xml version="1.0" encoding="UTF-8"?>
<svg xmlns="http://www.w3.org/2000/svg" width="16" height="16" viewBox="0 0 16 16">
  <path fill="currentColor" d="M8 1.2c-1.6 0-2.9 1.1-3.3 2.6-1.5.3-2.6 1.6-2.6 3.2 0 .6.2 1.2.4 1.7-.5.5-.8 1.2-.8 2 0 1.5 1.1 2.7 2.6 2.9.3 1.3 1.5 2.2 2.9 2.2.5 0 1-.1 1.4-.4.4.3.9.4 1.4.4 1.4 0 2.6-.9 2.9-2.2 1.5-.2 2.6-1.4 2.6-2.9 0-.8-.3-1.5-.8-2 .2-.5.4-1.1.4-1.7 0-1.6-1.1-2.9-2.6-3.2-.4-1.5-1.7-2.6-3.3-2.6zm-.7 2.1c.1 0 .2.1.2.2v8.6c0 .1-.1.2-.2.2-.9-.1-1.6-.8-1.7-1.7-.6-.1-1.1-.5-1.3-1-.6 0-1.1-.5-1.1-1.1 0-.4.2-.7.5-.9-.2-.3-.3-.6-.3-1 0-.7.4-1.3 1-1.6 0-.7.4-1.3 1-1.6.2-.6.7-1 1.4-1.1zm1.4 0c.7.1 1.2.5 1.4 1.1.6.3 1 .9 1 1.6.6.3 1 .9 1 1.6 0 .4-.1.7-.3 1 .3.2.5.5.5.9 0 .6-.5 1.1-1.1 1.1-.2.5-.7.9-1.3 1-.1.9-.8 1.6-1.7 1.7-.1 0-.2-.1-.2-.2V3.5c0-.1.1-.2.2-.2z"/>
</svg>
